<svg xmlns="http://www.w3.org/2000/svg" width="10" height="8" fill="none">
  <path fill="#F4F4FD" d="M8.4456.255A.9174.9174 0 0 1 9.0869 0a.9175.9175 0 0 1 .6375.2648c.1703.168.269.396.2753.6357a.9278.9278 0 0 1-.2415.6495L4.8636 7.7044a.9202.9202 0 0 1-.2987.215.916.916 0 0 1-1.0262-.1904L.2928 4.4656a.9249.9249 0 0 1-.2132-.3002.9292.9292 0 0 1 .1899-1.0306.9197.9197 0 0 1 .306-.2036.9158.9158 0 0 1 .719.0128.9203.9203 0 0 1 .2987.2143l2.5687 2.5814L8.4223.2822A.329.329 0 0 1 8.4468.255h-.0012Z"/>
</svg>
